# xmcd
#
# Track frame offsets:
#	150
#	16684
#	29782
#	48650
#	60546
#	75321
#	87831
#	105783
#	121208
#	137255
#	150330
#	163368
#	177379
#	193377
#
# Disc length: 2777 seconds
#
# Revision: 0
# Processed by: cddbd v1.5.1PL0 Copyright (c) Steve Scherf et al.
# Submitted via: dBpowerAMP V4.0
#
DISCID=a90ad70e
DTITLE=Hapn's - Country Moments
DYEAR=2003
DGENRE=Country
TTITLE0=Blanket On The Ground
TTITLE1=Darling
TTITLE2=Help Me Make It Trough The Night
TTITLE3=That'l Be The Day
TTITLE4=Crazy
TTITLE5=Stand By Your Man
TTITLE6=Chatahoochie
TTITLE7=Mercury Blues
TTITLE8=Always On My Mind
TTITLE9=Rosegarden
TTITLE10=Goodhearted Woman
TTITLE11=Crying Time
TTITLE12=Always On My Mind (Unplugged)
TTITLE13=Rosegarden (Remix)
EXTD=
EXTT0=
EXTT1=
EXTT2=
EXTT3=
EXTT4=
EXTT5=
EXTT6=
EXTT7=
EXTT8=
EXTT9=
EXTT10=
EXTT11=
EXTT12=
EXTT13=
PLAYORDER=
